<mxfile host="app.diagrams.net" modified="2023-03-28T11:00:47.133Z" agent="Mozilla/5.0 (Windows NT 10.0; Win64; x64) AppleWebKit/537.36 (KHTML, like Gecko) Chrome/111.0.0.0 Safari/537.36" etag="u_IrVKEwPEXfZUaaVPbk" version="21.1.1" type="device">
  <diagram name="Página-1" id="fdCrsIO0bIlCCYYUyEXW">
    <mxGraphModel dx="1050" dy="581" grid="1" gridSize="10" guides="1" tooltips="1" connect="1" arrows="1" fold="1" page="1" pageScale="1" pageWidth="827" pageHeight="1169" math="0" shadow="0">
      <root>
        <mxCell id="0" />
        <mxCell id="1" parent="0" />
        <mxCell id="ybZF06GGFOxtyvOGobXJ-9" style="edgeStyle=orthogonalEdgeStyle;rounded=0;orthogonalLoop=1;jettySize=auto;html=1;exitX=0.5;exitY=1;exitDx=0;exitDy=0;entryX=0.5;entryY=0;entryDx=0;entryDy=0;entryPerimeter=0;" parent="1" source="ybZF06GGFOxtyvOGobXJ-1" edge="1">
          <mxGeometry relative="1" as="geometry">
            <mxPoint x="360.0000000000002" y="150.0000000000001" as="targetPoint" />
          </mxGeometry>
        </mxCell>
        <mxCell id="ybZF06GGFOxtyvOGobXJ-1" value="Início&amp;nbsp;" style="ellipse;whiteSpace=wrap;html=1;" parent="1" vertex="1">
          <mxGeometry x="300" y="10" width="120" height="80" as="geometry" />
        </mxCell>
        <mxCell id="MfQ8Dqw7lcg2bkzvvQcD-1" style="edgeStyle=orthogonalEdgeStyle;rounded=0;orthogonalLoop=1;jettySize=auto;html=1;exitX=0.5;exitY=1;exitDx=0;exitDy=0;entryX=0.5;entryY=0;entryDx=0;entryDy=0;entryPerimeter=0;" edge="1" parent="1" source="ybZF06GGFOxtyvOGobXJ-4" target="ybZF06GGFOxtyvOGobXJ-7">
          <mxGeometry relative="1" as="geometry" />
        </mxCell>
        <mxCell id="ybZF06GGFOxtyvOGobXJ-4" value="nota 1" style="html=1;strokeWidth=2;shape=manualInput;whiteSpace=wrap;rounded=1;size=26;arcSize=11;" parent="1" vertex="1">
          <mxGeometry x="320" y="230" width="100" height="60" as="geometry" />
        </mxCell>
        <mxCell id="ybZF06GGFOxtyvOGobXJ-15" style="edgeStyle=orthogonalEdgeStyle;rounded=0;orthogonalLoop=1;jettySize=auto;html=1;exitX=0.5;exitY=1;exitDx=0;exitDy=0;exitPerimeter=0;entryX=0.349;entryY=0.286;entryDx=0;entryDy=0;entryPerimeter=0;" parent="1" source="ybZF06GGFOxtyvOGobXJ-5" target="ybZF06GGFOxtyvOGobXJ-4" edge="1">
          <mxGeometry relative="1" as="geometry" />
        </mxCell>
        <mxCell id="ybZF06GGFOxtyvOGobXJ-5" value="digite 1 nota" style="strokeWidth=2;html=1;shape=mxgraph.flowchart.display;whiteSpace=wrap;" parent="1" vertex="1">
          <mxGeometry x="314" y="150" width="100" height="60" as="geometry" />
        </mxCell>
        <mxCell id="MfQ8Dqw7lcg2bkzvvQcD-3" style="edgeStyle=orthogonalEdgeStyle;rounded=0;orthogonalLoop=1;jettySize=auto;html=1;exitX=0.5;exitY=1;exitDx=0;exitDy=0;entryX=0.5;entryY=0;entryDx=0;entryDy=0;entryPerimeter=0;" edge="1" parent="1" source="ybZF06GGFOxtyvOGobXJ-6" target="ybZF06GGFOxtyvOGobXJ-14">
          <mxGeometry relative="1" as="geometry" />
        </mxCell>
        <mxCell id="ybZF06GGFOxtyvOGobXJ-6" value="nota 2" style="html=1;strokeWidth=2;shape=manualInput;whiteSpace=wrap;rounded=1;size=26;arcSize=11;" parent="1" vertex="1">
          <mxGeometry x="320" y="390" width="100" height="60" as="geometry" />
        </mxCell>
        <mxCell id="MfQ8Dqw7lcg2bkzvvQcD-2" style="edgeStyle=orthogonalEdgeStyle;rounded=0;orthogonalLoop=1;jettySize=auto;html=1;exitX=0.5;exitY=1;exitDx=0;exitDy=0;exitPerimeter=0;entryX=0.5;entryY=0.167;entryDx=0;entryDy=0;entryPerimeter=0;" edge="1" parent="1" source="ybZF06GGFOxtyvOGobXJ-7" target="ybZF06GGFOxtyvOGobXJ-6">
          <mxGeometry relative="1" as="geometry" />
        </mxCell>
        <mxCell id="ybZF06GGFOxtyvOGobXJ-7" value="digite a 2&amp;nbsp;&lt;br&gt;nota" style="strokeWidth=2;html=1;shape=mxgraph.flowchart.display;whiteSpace=wrap;" parent="1" vertex="1">
          <mxGeometry x="320" y="310" width="100" height="60" as="geometry" />
        </mxCell>
        <mxCell id="MfQ8Dqw7lcg2bkzvvQcD-8" style="edgeStyle=orthogonalEdgeStyle;rounded=0;orthogonalLoop=1;jettySize=auto;html=1;exitX=0.5;exitY=1;exitDx=0;exitDy=0;entryX=0.42;entryY=-0.042;entryDx=0;entryDy=0;entryPerimeter=0;" edge="1" parent="1" source="ybZF06GGFOxtyvOGobXJ-8" target="MfQ8Dqw7lcg2bkzvvQcD-7">
          <mxGeometry relative="1" as="geometry" />
        </mxCell>
        <mxCell id="ybZF06GGFOxtyvOGobXJ-8" value="nota 3" style="html=1;strokeWidth=2;shape=manualInput;whiteSpace=wrap;rounded=1;size=26;arcSize=11;" parent="1" vertex="1">
          <mxGeometry x="330" y="570" width="100" height="60" as="geometry" />
        </mxCell>
        <mxCell id="MfQ8Dqw7lcg2bkzvvQcD-4" style="edgeStyle=orthogonalEdgeStyle;rounded=0;orthogonalLoop=1;jettySize=auto;html=1;exitX=0.5;exitY=1;exitDx=0;exitDy=0;exitPerimeter=0;entryX=0.408;entryY=0.277;entryDx=0;entryDy=0;entryPerimeter=0;" edge="1" parent="1" source="ybZF06GGFOxtyvOGobXJ-14" target="ybZF06GGFOxtyvOGobXJ-8">
          <mxGeometry relative="1" as="geometry" />
        </mxCell>
        <mxCell id="ybZF06GGFOxtyvOGobXJ-14" value="Digite a 3 nota" style="strokeWidth=2;html=1;shape=mxgraph.flowchart.display;whiteSpace=wrap;" parent="1" vertex="1">
          <mxGeometry x="320" y="490" width="100" height="60" as="geometry" />
        </mxCell>
        <mxCell id="MfQ8Dqw7lcg2bkzvvQcD-12" style="edgeStyle=orthogonalEdgeStyle;rounded=0;orthogonalLoop=1;jettySize=auto;html=1;exitX=1;exitY=0.5;exitDx=0;exitDy=0;entryX=0;entryY=0.25;entryDx=0;entryDy=0;" edge="1" parent="1" source="MfQ8Dqw7lcg2bkzvvQcD-5" target="MfQ8Dqw7lcg2bkzvvQcD-11">
          <mxGeometry relative="1" as="geometry" />
        </mxCell>
        <mxCell id="MfQ8Dqw7lcg2bkzvvQcD-14" style="edgeStyle=orthogonalEdgeStyle;rounded=0;orthogonalLoop=1;jettySize=auto;html=1;exitX=0.5;exitY=1;exitDx=0;exitDy=0;" edge="1" parent="1" source="MfQ8Dqw7lcg2bkzvvQcD-5">
          <mxGeometry relative="1" as="geometry">
            <mxPoint x="390" y="910" as="targetPoint" />
          </mxGeometry>
        </mxCell>
        <mxCell id="MfQ8Dqw7lcg2bkzvvQcD-5" value="&amp;nbsp;Media maior&lt;br&gt;que 5" style="rhombus;whiteSpace=wrap;html=1;" vertex="1" parent="1">
          <mxGeometry x="335" y="780" width="110" height="80" as="geometry" />
        </mxCell>
        <mxCell id="MfQ8Dqw7lcg2bkzvvQcD-10" style="edgeStyle=orthogonalEdgeStyle;rounded=0;orthogonalLoop=1;jettySize=auto;html=1;exitX=0.5;exitY=1;exitDx=0;exitDy=0;entryX=0.5;entryY=0;entryDx=0;entryDy=0;" edge="1" parent="1" source="MfQ8Dqw7lcg2bkzvvQcD-7" target="MfQ8Dqw7lcg2bkzvvQcD-5">
          <mxGeometry relative="1" as="geometry" />
        </mxCell>
        <mxCell id="MfQ8Dqw7lcg2bkzvvQcD-7" value="(nota1 + nota2 + nota3) /3" style="rounded=1;whiteSpace=wrap;html=1;absoluteArcSize=1;arcSize=14;strokeWidth=2;" vertex="1" parent="1">
          <mxGeometry x="340" y="670" width="100" height="80" as="geometry" />
        </mxCell>
        <mxCell id="MfQ8Dqw7lcg2bkzvvQcD-9" value="Fim" style="strokeWidth=2;html=1;shape=mxgraph.flowchart.start_1;whiteSpace=wrap;" vertex="1" parent="1">
          <mxGeometry x="335" y="1030" width="100" height="60" as="geometry" />
        </mxCell>
        <mxCell id="MfQ8Dqw7lcg2bkzvvQcD-18" style="edgeStyle=orthogonalEdgeStyle;rounded=0;orthogonalLoop=1;jettySize=auto;html=1;exitX=0.5;exitY=1;exitDx=0;exitDy=0;entryX=1;entryY=0.5;entryDx=0;entryDy=0;entryPerimeter=0;" edge="1" parent="1" source="MfQ8Dqw7lcg2bkzvvQcD-11" target="MfQ8Dqw7lcg2bkzvvQcD-9">
          <mxGeometry relative="1" as="geometry" />
        </mxCell>
        <mxCell id="MfQ8Dqw7lcg2bkzvvQcD-11" value="Aprovado" style="shape=parallelogram;html=1;strokeWidth=2;perimeter=parallelogramPerimeter;whiteSpace=wrap;rounded=1;arcSize=12;size=0.23;" vertex="1" parent="1">
          <mxGeometry x="500" y="800" width="100" height="60" as="geometry" />
        </mxCell>
        <mxCell id="MfQ8Dqw7lcg2bkzvvQcD-17" style="edgeStyle=orthogonalEdgeStyle;rounded=0;orthogonalLoop=1;jettySize=auto;html=1;exitX=0.5;exitY=1;exitDx=0;exitDy=0;entryX=0.5;entryY=0;entryDx=0;entryDy=0;entryPerimeter=0;" edge="1" parent="1" source="MfQ8Dqw7lcg2bkzvvQcD-13" target="MfQ8Dqw7lcg2bkzvvQcD-9">
          <mxGeometry relative="1" as="geometry" />
        </mxCell>
        <mxCell id="MfQ8Dqw7lcg2bkzvvQcD-13" value="reprovado" style="shape=parallelogram;html=1;strokeWidth=2;perimeter=parallelogramPerimeter;whiteSpace=wrap;rounded=1;arcSize=12;size=0.23;" vertex="1" parent="1">
          <mxGeometry x="335" y="910" width="100" height="60" as="geometry" />
        </mxCell>
        <mxCell id="MfQ8Dqw7lcg2bkzvvQcD-15" value="sim" style="text;html=1;align=center;verticalAlign=middle;resizable=0;points=[];autosize=1;strokeColor=none;fillColor=none;" vertex="1" parent="1">
          <mxGeometry x="350" y="855" width="40" height="30" as="geometry" />
        </mxCell>
        <mxCell id="MfQ8Dqw7lcg2bkzvvQcD-16" value="nao" style="text;html=1;align=center;verticalAlign=middle;resizable=0;points=[];autosize=1;strokeColor=none;fillColor=none;" vertex="1" parent="1">
          <mxGeometry x="470" y="775" width="40" height="30" as="geometry" />
        </mxCell>
      </root>
    </mxGraphModel>
  </diagram>
</mxfile>
